<mxfile host="app.diagrams.net" agent="Mozilla/5.0 (Windows NT 10.0; Win64; x64) AppleWebKit/537.36 (KHTML, like Gecko) Chrome/138.0.0.0 Safari/537.36" version="28.0.4">
  <diagram name="Página-1" id="r7IZvWM7xwwXCyD-f6Nr">
    <mxGraphModel grid="1" page="1" gridSize="10" guides="1" tooltips="1" connect="1" arrows="1" fold="1" pageScale="1" pageWidth="827" pageHeight="1169" math="0" shadow="0">
      <root>
        <mxCell id="0" />
        <mxCell id="1" parent="0" />
        <mxCell id="KllacX8_5JQTBHdPXqq2-1" value="Actor" style="shape=umlActor;verticalLabelPosition=bottom;verticalAlign=top;html=1;outlineConnect=0;" vertex="1" parent="1">
          <mxGeometry x="40" y="160" width="30" height="60" as="geometry" />
        </mxCell>
        <mxCell id="KllacX8_5JQTBHdPXqq2-2" value="&lt;span style=&quot;color: rgb(56, 58, 66); font-family: jetbrains, &amp;quot;jetbrains Fallback&amp;quot;, Menlo, Monaco, monospace, monospace; font-size: 14px; text-align: left; white-space: pre; background-color: rgb(255, 255, 255);&quot;&gt;Interfaz&lt;/span&gt;" style="rounded=1;whiteSpace=wrap;html=1;" vertex="1" parent="1">
          <mxGeometry x="310" y="135" width="120" height="90" as="geometry" />
        </mxCell>
        <mxCell id="KllacX8_5JQTBHdPXqq2-3" value="&lt;div&gt;&lt;br/&gt;&lt;/div&gt;" style="endArrow=none;html=1;rounded=0;exitX=1;exitY=0.3333333333333333;exitDx=0;exitDy=0;exitPerimeter=0;" edge="1" parent="1" source="KllacX8_5JQTBHdPXqq2-1" target="KllacX8_5JQTBHdPXqq2-2">
          <mxGeometry x="-0.04" y="50" width="50" height="50" relative="1" as="geometry">
            <mxPoint x="90" y="180" as="sourcePoint" />
            <mxPoint x="320" y="180" as="targetPoint" />
            <mxPoint as="offset" />
          </mxGeometry>
        </mxCell>
        <mxCell id="KllacX8_5JQTBHdPXqq2-4" value="" style="endArrow=classic;html=1;rounded=0;" edge="1" parent="1">
          <mxGeometry width="50" height="50" relative="1" as="geometry">
            <mxPoint x="110" y="170" as="sourcePoint" />
            <mxPoint x="260" y="170" as="targetPoint" />
          </mxGeometry>
        </mxCell>
        <mxCell id="KllacX8_5JQTBHdPXqq2-5" value="" style="endArrow=none;html=1;rounded=0;exitX=1;exitY=0.3333333333333333;exitDx=0;exitDy=0;exitPerimeter=0;" edge="1" parent="1">
          <mxGeometry x="-0.04" y="50" width="50" height="50" relative="1" as="geometry">
            <mxPoint x="430" y="179.5" as="sourcePoint" />
            <mxPoint x="680" y="179.5" as="targetPoint" />
            <mxPoint as="offset" />
          </mxGeometry>
        </mxCell>
        <mxCell id="KllacX8_5JQTBHdPXqq2-6" value="&lt;span style=&quot;color: rgb(56, 58, 66); font-family: jetbrains, &amp;quot;jetbrains Fallback&amp;quot;, Menlo, Monaco, monospace, monospace; font-size: 14px; text-align: left; white-space: pre; background-color: rgb(255, 255, 255);&quot;&gt;2:Muestra formulario solicitud&lt;/span&gt;" style="text;html=1;align=center;verticalAlign=middle;whiteSpace=wrap;rounded=0;" vertex="1" parent="1">
          <mxGeometry x="160" y="200" width="60" height="30" as="geometry" />
        </mxCell>
        <mxCell id="KllacX8_5JQTBHdPXqq2-7" value="&#xa;&lt;span style=&quot;color: rgb(56, 58, 66); font-family: jetbrains, &amp;quot;jetbrains Fallback&amp;quot;, Menlo, Monaco, monospace, monospace; font-size: 14px; font-style: normal; font-variant-ligatures: normal; font-variant-caps: normal; font-weight: 400; letter-spacing: normal; orphans: 2; text-align: left; text-indent: 0px; text-transform: none; widows: 2; word-spacing: 0px; -webkit-text-stroke-width: 0px; white-space: pre; background-color: rgb(255, 255, 255); text-decoration-thickness: initial; text-decoration-style: initial; text-decoration-color: initial; display: inline !important; float: none;&quot;&gt;Servidor&lt;/span&gt;&#xa;&#xa;" style="rounded=1;whiteSpace=wrap;html=1;" vertex="1" parent="1">
          <mxGeometry x="680" y="150" width="120" height="60" as="geometry" />
        </mxCell>
        <mxCell id="KllacX8_5JQTBHdPXqq2-9" value="" style="endArrow=none;html=1;rounded=0;exitX=1;exitY=0.3333333333333333;exitDx=0;exitDy=0;exitPerimeter=0;" edge="1" parent="1">
          <mxGeometry x="-0.04" y="50" width="50" height="50" relative="1" as="geometry">
            <mxPoint x="60" y="189.5" as="sourcePoint" />
            <mxPoint x="310" y="189.5" as="targetPoint" />
            <mxPoint as="offset" />
          </mxGeometry>
        </mxCell>
        <mxCell id="KllacX8_5JQTBHdPXqq2-10" value="" style="endArrow=classic;html=1;rounded=0;" edge="1" parent="1">
          <mxGeometry width="50" height="50" relative="1" as="geometry">
            <mxPoint x="220" y="200" as="sourcePoint" />
            <mxPoint x="150" y="200" as="targetPoint" />
          </mxGeometry>
        </mxCell>
        <mxCell id="KllacX8_5JQTBHdPXqq2-11" value="&lt;span style=&quot;white-space: pre; background-color: rgb(255, 255, 255); color: rgb(56, 58, 66); font-family: jetbrains, &amp;quot;jetbrains Fallback&amp;quot;, Menlo, Monaco, monospace, monospace; font-size: 14px; text-align: left;&quot;&gt;1:&lt;/span&gt;&lt;span style=&quot;white-space: pre; background-color: rgb(255, 255, 255); color: rgb(56, 58, 66); font-family: jetbrains, &amp;quot;jetbrains Fallback&amp;quot;, Menlo, Monaco, monospace, monospace; font-size: 14px; text-align: left;&quot;&gt;Solicita cambio de documento&lt;/span&gt;" style="text;html=1;align=center;verticalAlign=middle;whiteSpace=wrap;rounded=0;" vertex="1" parent="1">
          <mxGeometry x="150" y="100" width="60" height="30" as="geometry" />
        </mxCell>
        <mxCell id="KllacX8_5JQTBHdPXqq2-12" value="3:&lt;span style=&quot;color: rgb(56, 58, 66); font-family: jetbrains, &amp;quot;jetbrains Fallback&amp;quot;, Menlo, Monaco, monospace, monospace; font-size: 14px; text-align: left; white-space: pre; background-color: rgb(255, 255, 255);&quot;&gt;Completa datos solicitud&lt;/span&gt;" style="text;html=1;align=center;verticalAlign=middle;whiteSpace=wrap;rounded=0;" vertex="1" parent="1">
          <mxGeometry x="150" y="135" width="60" height="30" as="geometry" />
        </mxCell>
        <mxCell id="KllacX8_5JQTBHdPXqq2-13" value="&#xa;&lt;span style=&quot;color: rgb(56, 58, 66); font-family: jetbrains, &amp;quot;jetbrains Fallback&amp;quot;, Menlo, Monaco, monospace, monospace; font-size: 14px; font-style: normal; font-variant-ligatures: normal; font-variant-caps: normal; font-weight: 400; letter-spacing: normal; orphans: 2; text-align: left; text-indent: 0px; text-transform: none; widows: 2; word-spacing: 0px; -webkit-text-stroke-width: 0px; white-space: pre; background-color: rgb(255, 255, 255); text-decoration-thickness: initial; text-decoration-style: initial; text-decoration-color: initial; display: inline !important; float: none;&quot;&gt;4. Envía solicitud&lt;/span&gt;&#xa;&#xa;" style="text;html=1;align=center;verticalAlign=middle;whiteSpace=wrap;rounded=0;" vertex="1" parent="1">
          <mxGeometry x="530" y="130" width="60" height="30" as="geometry" />
        </mxCell>
        <mxCell id="KllacX8_5JQTBHdPXqq2-14" value="" style="endArrow=classic;html=1;rounded=0;" edge="1" parent="1">
          <mxGeometry width="50" height="50" relative="1" as="geometry">
            <mxPoint x="490" y="165" as="sourcePoint" />
            <mxPoint x="640" y="165" as="targetPoint" />
          </mxGeometry>
        </mxCell>
        <mxCell id="KllacX8_5JQTBHdPXqq2-15" value="&lt;span style=&quot;color: rgb(56, 58, 66); font-family: jetbrains, &amp;quot;jetbrains Fallback&amp;quot;, Menlo, Monaco, monospace, monospace; font-size: 14px; text-align: left; white-space: pre; background-color: rgb(255, 255, 255);&quot;&gt;Autenticación&lt;/span&gt;" style="rounded=1;whiteSpace=wrap;html=1;" vertex="1" parent="1">
          <mxGeometry x="680" y="370" width="120" height="60" as="geometry" />
        </mxCell>
        <mxCell id="KllacX8_5JQTBHdPXqq2-16" value="" style="endArrow=none;html=1;rounded=0;entryX=0.5;entryY=1;entryDx=0;entryDy=0;exitX=0.5;exitY=0;exitDx=0;exitDy=0;" edge="1" parent="1" source="KllacX8_5JQTBHdPXqq2-15" target="KllacX8_5JQTBHdPXqq2-7">
          <mxGeometry width="50" height="50" relative="1" as="geometry">
            <mxPoint x="680" y="310" as="sourcePoint" />
            <mxPoint x="730" y="260" as="targetPoint" />
          </mxGeometry>
        </mxCell>
        <mxCell id="KllacX8_5JQTBHdPXqq2-17" value="" style="endArrow=classic;html=1;rounded=0;" edge="1" parent="1">
          <mxGeometry width="50" height="50" relative="1" as="geometry">
            <mxPoint x="760" y="250" as="sourcePoint" />
            <mxPoint x="760" y="350" as="targetPoint" />
          </mxGeometry>
        </mxCell>
        <mxCell id="KllacX8_5JQTBHdPXqq2-18" value="&lt;span style=&quot;color: rgb(56, 58, 66); font-family: jetbrains, &amp;quot;jetbrains Fallback&amp;quot;, Menlo, Monaco, monospace, monospace; font-size: 14px; text-align: left; white-space: pre; background-color: rgb(255, 255, 255);&quot;&gt;5. Valida sesión&lt;/span&gt;" style="text;html=1;align=center;verticalAlign=middle;whiteSpace=wrap;rounded=0;" vertex="1" parent="1">
          <mxGeometry x="800" y="290" width="60" height="30" as="geometry" />
        </mxCell>
        <mxCell id="KllacX8_5JQTBHdPXqq2-19" value="" style="endArrow=none;html=1;rounded=0;entryX=0.5;entryY=1;entryDx=0;entryDy=0;exitX=0.5;exitY=0;exitDx=0;exitDy=0;" edge="1" parent="1">
          <mxGeometry width="50" height="50" relative="1" as="geometry">
            <mxPoint x="720" y="370" as="sourcePoint" />
            <mxPoint x="720" y="210" as="targetPoint" />
          </mxGeometry>
        </mxCell>
        <mxCell id="KllacX8_5JQTBHdPXqq2-20" value="" style="endArrow=block;dashed=1;endFill=0;endSize=12;html=1;rounded=0;" edge="1" parent="1">
          <mxGeometry width="160" relative="1" as="geometry">
            <mxPoint x="700" y="360" as="sourcePoint" />
            <mxPoint x="700" y="250" as="targetPoint" />
          </mxGeometry>
        </mxCell>
        <mxCell id="KllacX8_5JQTBHdPXqq2-21" value="&lt;span style=&quot;color: rgb(56, 58, 66); font-family: jetbrains, &amp;quot;jetbrains Fallback&amp;quot;, Menlo, Monaco, monospace, monospace; font-size: 14px; text-align: left; white-space: pre; background-color: rgb(255, 255, 255);&quot;&gt;6. Sesión válida&lt;/span&gt;" style="text;html=1;align=center;verticalAlign=middle;whiteSpace=wrap;rounded=0;" vertex="1" parent="1">
          <mxGeometry x="610" y="300" width="60" height="30" as="geometry" />
        </mxCell>
        <mxCell id="KllacX8_5JQTBHdPXqq2-22" value="&#xa;&lt;span style=&quot;color: rgb(56, 58, 66); font-family: jetbrains, &amp;quot;jetbrains Fallback&amp;quot;, Menlo, Monaco, monospace, monospace; font-size: 14px; font-style: normal; font-variant-ligatures: normal; font-variant-caps: normal; font-weight: 400; letter-spacing: normal; orphans: 2; text-align: left; text-indent: 0px; text-transform: none; widows: 2; word-spacing: 0px; -webkit-text-stroke-width: 0px; white-space: pre; background-color: rgb(255, 255, 255); text-decoration-thickness: initial; text-decoration-style: initial; text-decoration-color: initial; display: inline !important; float: none;&quot;&gt;Servicio Solicitudes&lt;/span&gt;&#xa;&#xa;" style="rounded=1;whiteSpace=wrap;html=1;" vertex="1" parent="1">
          <mxGeometry x="294" y="370" width="120" height="60" as="geometry" />
        </mxCell>
        <mxCell id="KllacX8_5JQTBHdPXqq2-23" value="" style="endArrow=none;html=1;rounded=0;exitX=1;exitY=0.5;exitDx=0;exitDy=0;entryX=0;entryY=0.5;entryDx=0;entryDy=0;" edge="1" parent="1" source="KllacX8_5JQTBHdPXqq2-22" target="KllacX8_5JQTBHdPXqq2-15">
          <mxGeometry x="-0.04" y="50" width="50" height="50" relative="1" as="geometry">
            <mxPoint x="510" y="390" as="sourcePoint" />
            <mxPoint x="760" y="390" as="targetPoint" />
            <mxPoint as="offset" />
          </mxGeometry>
        </mxCell>
        <mxCell id="KllacX8_5JQTBHdPXqq2-24" value="&lt;span style=&quot;color: rgb(56, 58, 66); font-family: jetbrains, &amp;quot;jetbrains Fallback&amp;quot;, Menlo, Monaco, monospace, monospace; font-size: 14px; text-align: left; white-space: pre; background-color: rgb(255, 255, 255);&quot;&gt;7. Procesa solicitud&lt;/span&gt;" style="text;html=1;align=center;verticalAlign=middle;whiteSpace=wrap;rounded=0;" vertex="1" parent="1">
          <mxGeometry x="530" y="350" width="60" height="30" as="geometry" />
        </mxCell>
        <mxCell id="KllacX8_5JQTBHdPXqq2-27" value="" style="endArrow=classic;html=1;rounded=0;" edge="1" parent="1">
          <mxGeometry width="50" height="50" relative="1" as="geometry">
            <mxPoint x="580" y="380" as="sourcePoint" />
            <mxPoint x="510" y="380" as="targetPoint" />
          </mxGeometry>
        </mxCell>
        <mxCell id="KllacX8_5JQTBHdPXqq2-28" value="" style="endArrow=none;html=1;rounded=0;exitX=-0.025;exitY=0.622;exitDx=0;exitDy=0;entryX=0.5;entryY=0;entryDx=0;entryDy=0;exitPerimeter=0;" edge="1" parent="1" source="KllacX8_5JQTBHdPXqq2-22" target="KllacX8_5JQTBHdPXqq2-22">
          <mxGeometry x="-0.04" y="50" width="50" height="50" relative="1" as="geometry">
            <mxPoint x="220" y="420" as="sourcePoint" />
            <mxPoint x="486" y="420" as="targetPoint" />
            <mxPoint as="offset" />
            <Array as="points">
              <mxPoint x="250" y="407" />
              <mxPoint x="250" y="350" />
              <mxPoint x="354" y="350" />
            </Array>
          </mxGeometry>
        </mxCell>
        <mxCell id="KllacX8_5JQTBHdPXqq2-29" value="" style="endArrow=classic;html=1;rounded=0;" edge="1" parent="1">
          <mxGeometry width="50" height="50" relative="1" as="geometry">
            <mxPoint x="230" y="390" as="sourcePoint" />
            <mxPoint x="300" y="340" as="targetPoint" />
            <Array as="points">
              <mxPoint x="230" y="340" />
            </Array>
          </mxGeometry>
        </mxCell>
        <mxCell id="KllacX8_5JQTBHdPXqq2-30" value="&lt;span style=&quot;color: rgb(56, 58, 66); font-family: jetbrains, &amp;quot;jetbrains Fallback&amp;quot;, Menlo, Monaco, monospace, monospace; font-size: 14px; text-align: left; white-space: pre; background-color: rgb(255, 255, 255);&quot;&gt;8. Valida datos&lt;/span&gt;&lt;div&gt;&lt;span style=&quot;color: rgb(56, 58, 66); font-family: jetbrains, &amp;quot;jetbrains Fallback&amp;quot;, Menlo, Monaco, monospace, monospace; font-size: 14px; text-align: left; white-space: pre; background-color: rgb(255, 255, 255);&quot;&gt;9. Genera número solicitud&lt;br/&gt;&lt;/span&gt;&lt;/div&gt;&lt;div&gt;&lt;span style=&quot;color: rgb(56, 58, 66); font-family: jetbrains, &amp;quot;jetbrains Fallback&amp;quot;, Menlo, Monaco, monospace, monospace; font-size: 14px; text-align: left; white-space: pre; background-color: rgb(255, 255, 255);&quot;&gt;&lt;br&gt;&lt;/span&gt;&lt;/div&gt;" style="text;html=1;align=center;verticalAlign=middle;whiteSpace=wrap;rounded=0;" vertex="1" parent="1">
          <mxGeometry x="150" y="310" width="60" height="30" as="geometry" />
        </mxCell>
        <mxCell id="KllacX8_5JQTBHdPXqq2-31" value="&lt;span style=&quot;color: rgb(56, 58, 66); font-family: jetbrains, &amp;quot;jetbrains Fallback&amp;quot;, Menlo, Monaco, monospace, monospace; font-size: 14px; text-align: left; white-space: pre; background-color: rgb(255, 255, 255);&quot;&gt;Base de Datos&lt;/span&gt;" style="rounded=1;whiteSpace=wrap;html=1;" vertex="1" parent="1">
          <mxGeometry x="294" y="570" width="120" height="60" as="geometry" />
        </mxCell>
        <mxCell id="KllacX8_5JQTBHdPXqq2-32" value="" style="endArrow=none;html=1;rounded=0;entryX=0.75;entryY=1;entryDx=0;entryDy=0;exitX=0.75;exitY=0;exitDx=0;exitDy=0;" edge="1" parent="1" source="KllacX8_5JQTBHdPXqq2-31" target="KllacX8_5JQTBHdPXqq2-22">
          <mxGeometry width="50" height="50" relative="1" as="geometry">
            <mxPoint x="369.47" y="590" as="sourcePoint" />
            <mxPoint x="369.47" y="430" as="targetPoint" />
          </mxGeometry>
        </mxCell>
        <mxCell id="KllacX8_5JQTBHdPXqq2-33" value="&lt;span style=&quot;color: rgb(56, 58, 66); font-family: jetbrains, &amp;quot;jetbrains Fallback&amp;quot;, Menlo, Monaco, monospace, monospace; font-size: 14px; text-align: left; white-space: pre; background-color: rgb(255, 255, 255);&quot;&gt;10. Registra solicitud&lt;/span&gt;" style="text;html=1;align=center;verticalAlign=middle;whiteSpace=wrap;rounded=0;" vertex="1" parent="1">
          <mxGeometry x="470" y="480" width="60" height="30" as="geometry" />
        </mxCell>
        <mxCell id="KllacX8_5JQTBHdPXqq2-34" value="" style="endArrow=classic;html=1;rounded=0;" edge="1" parent="1">
          <mxGeometry width="50" height="50" relative="1" as="geometry">
            <mxPoint x="400" y="450" as="sourcePoint" />
            <mxPoint x="400" y="550" as="targetPoint" />
          </mxGeometry>
        </mxCell>
        <mxCell id="KllacX8_5JQTBHdPXqq2-36" value="" style="endArrow=none;html=1;rounded=0;entryX=0.5;entryY=1;entryDx=0;entryDy=0;exitX=0.5;exitY=0;exitDx=0;exitDy=0;" edge="1" parent="1" source="KllacX8_5JQTBHdPXqq2-31" target="KllacX8_5JQTBHdPXqq2-22">
          <mxGeometry width="50" height="50" relative="1" as="geometry">
            <mxPoint x="350" y="580" as="sourcePoint" />
            <mxPoint x="374" y="370" as="targetPoint" />
          </mxGeometry>
        </mxCell>
        <mxCell id="KllacX8_5JQTBHdPXqq2-37" value="&lt;span style=&quot;color: rgb(56, 58, 66); font-family: jetbrains, &amp;quot;jetbrains Fallback&amp;quot;, Menlo, Monaco, monospace, monospace; font-size: 14px; text-align: left; white-space: pre; background-color: rgb(255, 255, 255);&quot;&gt;11. Confirma registro&lt;/span&gt;" style="text;html=1;align=center;verticalAlign=middle;whiteSpace=wrap;rounded=0;" vertex="1" parent="1">
          <mxGeometry x="210" y="490" width="60" height="30" as="geometry" />
        </mxCell>
        <mxCell id="KllacX8_5JQTBHdPXqq2-38" value="" style="endArrow=block;dashed=1;endFill=0;endSize=12;html=1;rounded=0;" edge="1" parent="1">
          <mxGeometry width="160" relative="1" as="geometry">
            <mxPoint x="330" y="550" as="sourcePoint" />
            <mxPoint x="330" y="440" as="targetPoint" />
          </mxGeometry>
        </mxCell>
        <mxCell id="KllacX8_5JQTBHdPXqq2-39" value="" style="endArrow=block;dashed=1;endFill=0;endSize=12;html=1;rounded=0;exitX=1;exitY=0;exitDx=0;exitDy=0;" edge="1" parent="1" source="KllacX8_5JQTBHdPXqq2-22">
          <mxGeometry width="160" relative="1" as="geometry">
            <mxPoint x="450" y="430" as="sourcePoint" />
            <mxPoint x="670" y="220" as="targetPoint" />
          </mxGeometry>
        </mxCell>
        <mxCell id="KllacX8_5JQTBHdPXqq2-40" value="&lt;span style=&quot;color: rgb(56, 58, 66); font-family: jetbrains, &amp;quot;jetbrains Fallback&amp;quot;, Menlo, Monaco, monospace, monospace; font-size: 14px; text-align: left; white-space: pre; background-color: rgb(255, 255, 255);&quot;&gt;12. Solicitud creada&lt;/span&gt;" style="text;html=1;align=center;verticalAlign=middle;whiteSpace=wrap;rounded=0;rotation=-30;" vertex="1" parent="1">
          <mxGeometry x="470" y="270" width="60" height="30" as="geometry" />
        </mxCell>
        <mxCell id="KllacX8_5JQTBHdPXqq2-42" value="" style="endArrow=none;html=1;rounded=0;exitX=1;exitY=0.3333333333333333;exitDx=0;exitDy=0;exitPerimeter=0;" edge="1" parent="1">
          <mxGeometry x="-0.04" y="50" width="50" height="50" relative="1" as="geometry">
            <mxPoint x="430" y="189.47" as="sourcePoint" />
            <mxPoint x="680" y="189.47" as="targetPoint" />
            <mxPoint as="offset" />
          </mxGeometry>
        </mxCell>
        <mxCell id="KllacX8_5JQTBHdPXqq2-43" value="" style="endArrow=block;dashed=1;endFill=0;endSize=12;html=1;rounded=0;" edge="1" parent="1">
          <mxGeometry width="160" relative="1" as="geometry">
            <mxPoint x="660" y="200" as="sourcePoint" />
            <mxPoint x="460" y="200" as="targetPoint" />
          </mxGeometry>
        </mxCell>
        <mxCell id="KllacX8_5JQTBHdPXqq2-44" value="&lt;span style=&quot;color: rgb(56, 58, 66); font-family: jetbrains, &amp;quot;jetbrains Fallback&amp;quot;, Menlo, Monaco, monospace, monospace; font-size: 14px; text-align: left; white-space: pre; background-color: rgb(255, 255, 255);&quot;&gt; 13. Confirma solicitud&lt;/span&gt;" style="text;html=1;align=center;verticalAlign=middle;whiteSpace=wrap;rounded=0;" vertex="1" parent="1">
          <mxGeometry x="530" y="201" width="60" height="30" as="geometry" />
        </mxCell>
        <mxCell id="KllacX8_5JQTBHdPXqq2-45" value="" style="endArrow=block;dashed=1;endFill=0;endSize=12;html=1;rounded=0;" edge="1" parent="1">
          <mxGeometry width="160" relative="1" as="geometry">
            <mxPoint x="294" y="229.95" as="sourcePoint" />
            <mxPoint x="94" y="229.95" as="targetPoint" />
          </mxGeometry>
        </mxCell>
        <mxCell id="KllacX8_5JQTBHdPXqq2-48" value="Text" style="text;html=1;align=center;verticalAlign=middle;resizable=0;points=[];autosize=1;strokeColor=none;fillColor=none;" vertex="1" parent="1">
          <mxGeometry x="155" y="238" width="50" height="30" as="geometry" />
        </mxCell>
      </root>
    </mxGraphModel>
  </diagram>
</mxfile>
